solid OpenSCAD_Model
  facet normal 0 0 -1
    outer loop
      vertex 19.5645 0.336914 -3
      vertex 19.4043 0.895508 -3
      vertex 19.5732 0.641602 -3
    endloop
  endfacet
  facet normal 0 0 -1
    outer loop
      vertex 19.3809 0.0927734 -3
      vertex 19.4043 0.895508 -3
      vertex 19.5645 0.336914 -3
    endloop
  endfacet
  facet normal 0 0 -1
    outer loop
      vertex 19.0898 0 -3
      vertex 19.4043 0.895508 -3
      vertex 19.3809 0.0927734 -3
    endloop
  endfacet
  facet normal 0 0 -1
    outer loop
      vertex 14.9775 1.97266 -3
      vertex 19.4043 0.895508 -3
      vertex 19.0898 0 -3
    endloop
  endfacet
  facet normal 0 0 -1
    outer loop
      vertex 19.4043 0.895508 -3
      vertex 14.9775 1.97266 -3
      vertex 15.3857 4.11035 -3
    endloop
  endfacet
  facet normal 0 0 -1
    outer loop
      vertex 14.9775 3.91406 -3
      vertex 15.3857 4.11035 -3
      vertex 14.9775 1.97266 -3
    endloop
  endfacet
  facet normal 0 0 -1
    outer loop
      vertex 19.0898 0 -3
      vertex 4.38379 1.97266 -3
      vertex 14.9775 1.97266 -3
    endloop
  endfacet
  facet normal 0 0 -1
    outer loop
      vertex 0 0.68 -3
      vertex 4.02539 2.12988 -3
      vertex 0 0 -3
    endloop
  endfacet
  facet normal -0 0 -1
    outer loop
      vertex 4.38379 1.97266 -3
      vertex 0 0 -3
      vertex 4.02539 2.12988 -3
    endloop
  endfacet
  facet normal 0 0 -1
    outer loop
      vertex 0 0 -3
      vertex 4.38379 1.97266 -3
      vertex 19.0898 0 -3
    endloop
  endfacet
  facet normal -0 0 -1
    outer loop
      vertex 15.3857 4.11035 -3
      vertex 14.9775 3.91406 -3
      vertex 15.1201 4.14062 -3
    endloop
  endfacet
  facet normal 0 0 -1
    outer loop
      vertex 12.7148 2.97852 -3
      vertex 13.7207 3.98438 -3
      vertex 13.6416 3.59277 -3
    endloop
  endfacet
  facet normal 0 0 -1
    outer loop
      vertex 17.7402 34.9131 -3
      vertex 18.2432 35.416 -3
      vertex 18.0957 35.0605 -3
    endloop
  endfacet
  facet normal 0 0 -1
    outer loop
      vertex 18.2432 35.416 -3
      vertex 15.2256 38.6787 -3
      vertex 18.2432 52.9883 -3
    endloop
  endfacet
  facet normal 0 0 -1
    outer loop
      vertex 18.2432 35.416 -3
      vertex 17.7402 34.9131 -3
      vertex 17.1807 34.9131 -3
    endloop
  endfacet
  facet normal 0 0 -1
    outer loop
      vertex 13.7207 38.6787 -3
      vertex 18.2432 52.9883 -3
      vertex 15.2256 38.6787 -3
    endloop
  endfacet
  facet normal -0 0 -1
    outer loop
      vertex 18.2432 35.416 -3
      vertex 17.1807 34.9131 -3
      vertex 16.2734 35.4854 -3
    endloop
  endfacet
  facet normal 0 -0 -1
    outer loop
      vertex 16.2314 55 -3
      vertex 18.2432 52.9883 -3
      vertex 13.7207 38.6787 -3
    endloop
  endfacet
  facet normal 0 0 -1
    outer loop
      vertex 16.2734 35.4854 -3
      vertex 17.1807 34.9131 -3
      vertex 16.6445 35.0674 -3
    endloop
  endfacet
  facet normal 0 0 -1
    outer loop
      vertex 18.2432 35.416 -3
      vertex 16.2734 35.4854 -3
      vertex 15.2256 38.6787 -3
    endloop
  endfacet
  facet normal 0 0 -1
    outer loop
      vertex 18.2432 52.9883 -3
      vertex 16.2314 55 -3
      vertex 18.0898 53.7578 -3
    endloop
  endfacet
  facet normal 0 0 -1
    outer loop
      vertex 17.6543 54.4102 -3
      vertex 16.2314 55 -3
      vertex 17.002 54.8467 -3
    endloop
  endfacet
  facet normal 0 0 -1
    outer loop
      vertex 18.0898 53.7578 -3
      vertex 16.2314 55 -3
      vertex 17.6543 54.4102 -3
    endloop
  endfacet
  facet normal 0 0 -1
    outer loop
      vertex 12.7148 2.97852 -3
      vertex 13.6416 3.59277 -3
      vertex 13.4258 3.27344 -3
    endloop
  endfacet
  facet normal 0 0 -1
    outer loop
      vertex 12.7148 2.97852 -3
      vertex 13.4258 3.27344 -3
      vertex 13.1055 3.05762 -3
    endloop
  endfacet
  facet normal 0 0 -1
    outer loop
      vertex 13.7207 3.98438 -3
      vertex 12.7148 2.97852 -3
      vertex 4.38379 2.97852 -3
    endloop
  endfacet
  facet normal -0 0 -1
    outer loop
      vertex 13.7207 3.98438 -3
      vertex 4.38379 2.97852 -3
      vertex 0 5.68 -3
    endloop
  endfacet
  facet normal 0 0 -1
    outer loop
      vertex 13.7207 3.98438 -3
      vertex 0 5.68 -3
      vertex 13.7207 38.6787 -3
    endloop
  endfacet
  facet normal 0 0 -1
    outer loop
      vertex 0 5.68 -3
      vertex 4.38379 2.97852 -3
      vertex 4.01855 2.82129 -3
    endloop
  endfacet
  facet normal 0 0 -1
    outer loop
      vertex 0 5.68 -3
      vertex 4.01855 2.82129 -3
      vertex 3.90137 2.47559 -3
    endloop
  endfacet
  facet normal -0 0 -1
    outer loop
      vertex 4.02539 2.12988 -3
      vertex 0 0.68 -3
      vertex 3.90137 2.47559 -3
    endloop
  endfacet
  facet normal 0 0 -1
    outer loop
      vertex 0 5.68 -3
      vertex 3.90137 2.47559 -3
      vertex 0 0.68 -3
    endloop
  endfacet
  facet normal -0 0 -1
    outer loop
      vertex 13.7207 38.6787 -3
      vertex 0 5.68 -3
      vertex 0 49.07 -3
    endloop
  endfacet
  facet normal 0 0 -1
    outer loop
      vertex 13.7207 38.6787 -3
      vertex 0 49.07 -3
      vertex 16.2314 55 -3
    endloop
  endfacet
  facet normal 0 0 -1
    outer loop
      vertex 0 54.07 -3
      vertex 16.2314 55 -3
      vertex 0 49.07 -3
    endloop
  endfacet
  facet normal -0 0 -1
    outer loop
      vertex 16.2314 55 -3
      vertex 0 54.07 -3
      vertex 0 55 -3
    endloop
  endfacet
  facet normal 0 0 -1
    outer loop
      vertex -5 49.07 -3
      vertex 0 54.07 -3
      vertex 0 49.07 -3
    endloop
  endfacet
  facet normal -0 0 -1
    outer loop
      vertex 0 54.07 -3
      vertex -5 49.07 -3
      vertex -5 54.07 -3
    endloop
  endfacet
  facet normal 0 0 -1
    outer loop
      vertex -5 0.68 -3
      vertex 0 5.68 -3
      vertex 0 0.68 -3
    endloop
  endfacet
  facet normal -0 0 -1
    outer loop
      vertex 0 5.68 -3
      vertex -5 0.68 -3
      vertex -5 5.68 -3
    endloop
  endfacet
  facet normal -0 0 1
    outer loop
      vertex 15.2256 38.6787 3
      vertex 18.2432 35.416 3
      vertex 18.2432 52.9883 3
    endloop
  endfacet
  facet normal 0 0 1
    outer loop
      vertex 16.2314 55 3
      vertex 18.2432 52.9883 3
      vertex 18.0898 53.7578 3
    endloop
  endfacet
  facet normal -0 -0 1
    outer loop
      vertex 16.2734 35.4854 3
      vertex 18.2432 35.416 3
      vertex 15.2256 38.6787 3
    endloop
  endfacet
  facet normal 0 0 1
    outer loop
      vertex 16.2314 55 3
      vertex 18.0898 53.7578 3
      vertex 17.6543 54.4102 3
    endloop
  endfacet
  facet normal 0 -0 1
    outer loop
      vertex 17.1807 34.9131 3
      vertex 18.2432 35.416 3
      vertex 16.2734 35.4854 3
    endloop
  endfacet
  facet normal 0 0 1
    outer loop
      vertex 16.2314 55 3
      vertex 17.6543 54.4102 3
      vertex 17.002 54.8467 3
    endloop
  endfacet
  facet normal 0 -0 1
    outer loop
      vertex 17.7402 34.9131 3
      vertex 18.2432 35.416 3
      vertex 17.1807 34.9131 3
    endloop
  endfacet
  facet normal 0 0 1
    outer loop
      vertex 18.2432 35.416 3
      vertex 17.7402 34.9131 3
      vertex 18.0957 35.0605 3
    endloop
  endfacet
  facet normal 0 0 1
    outer loop
      vertex 18.2432 52.9883 3
      vertex 16.2314 55 3
      vertex 13.7207 38.6787 3
    endloop
  endfacet
  facet normal 0 0 1
    outer loop
      vertex 17.1807 34.9131 3
      vertex 16.2734 35.4854 3
      vertex 16.6445 35.0674 3
    endloop
  endfacet
  facet normal 0 0 1
    outer loop
      vertex 18.2432 52.9883 3
      vertex 13.7207 38.6787 3
      vertex 15.2256 38.6787 3
    endloop
  endfacet
  facet normal -0 0 1
    outer loop
      vertex 0 5.68 3
      vertex 13.7207 3.98438 3
      vertex 13.7207 38.6787 3
    endloop
  endfacet
  facet normal 0 -0 1
    outer loop
      vertex 4.38379 2.97852 3
      vertex 13.7207 3.98438 3
      vertex 0 5.68 3
    endloop
  endfacet
  facet normal 0 -0 1
    outer loop
      vertex 12.7148 2.97852 3
      vertex 13.7207 3.98438 3
      vertex 4.38379 2.97852 3
    endloop
  endfacet
  facet normal 0 0 1
    outer loop
      vertex 13.7207 3.98438 3
      vertex 12.7148 2.97852 3
      vertex 13.6416 3.59277 3
    endloop
  endfacet
  facet normal 0 0 1
    outer loop
      vertex 13.4258 3.27344 3
      vertex 12.7148 2.97852 3
      vertex 13.1055 3.05762 3
    endloop
  endfacet
  facet normal -0 0 1
    outer loop
      vertex 0 49.07 3
      vertex 13.7207 38.6787 3
      vertex 16.2314 55 3
    endloop
  endfacet
  facet normal 0 0 1
    outer loop
      vertex 0 5.68 3
      vertex 13.7207 38.6787 3
      vertex 0 49.07 3
    endloop
  endfacet
  facet normal 0 0 1
    outer loop
      vertex 4.38379 2.97852 3
      vertex 0 5.68 3
      vertex 4.01855 2.82129 3
    endloop
  endfacet
  facet normal 0 0 1
    outer loop
      vertex 0 54.07 3
      vertex 16.2314 55 3
      vertex 0 55 3
    endloop
  endfacet
  facet normal 0 0 1
    outer loop
      vertex 19.4043 0.895508 3
      vertex 19.5645 0.336914 3
      vertex 19.5732 0.641602 3
    endloop
  endfacet
  facet normal 0 0 1
    outer loop
      vertex 19.4043 0.895508 3
      vertex 19.3809 0.0927734 3
      vertex 19.5645 0.336914 3
    endloop
  endfacet
  facet normal 0 0 1
    outer loop
      vertex 19.4043 0.895508 3
      vertex 19.0898 0 3
      vertex 19.3809 0.0927734 3
    endloop
  endfacet
  facet normal -0 0 1
    outer loop
      vertex 14.9775 1.97266 3
      vertex 19.4043 0.895508 3
      vertex 15.3857 4.11035 3
    endloop
  endfacet
  facet normal 0 0 1
    outer loop
      vertex 14.9775 3.91406 3
      vertex 15.3857 4.11035 3
      vertex 15.1201 4.14062 3
    endloop
  endfacet
  facet normal 0 0 1
    outer loop
      vertex 15.3857 4.11035 3
      vertex 14.9775 3.91406 3
      vertex 14.9775 1.97266 3
    endloop
  endfacet
  facet normal 0 0 1
    outer loop
      vertex 19.4043 0.895508 3
      vertex 14.9775 1.97266 3
      vertex 19.0898 0 3
    endloop
  endfacet
  facet normal -0 0 1
    outer loop
      vertex 4.38379 1.97266 3
      vertex 19.0898 0 3
      vertex 14.9775 1.97266 3
    endloop
  endfacet
  facet normal 0 0 1
    outer loop
      vertex 0 49.07 3
      vertex 16.2314 55 3
      vertex 0 54.07 3
    endloop
  endfacet
  facet normal 0 0 1
    outer loop
      vertex 13.6416 3.59277 3
      vertex 12.7148 2.97852 3
      vertex 13.4258 3.27344 3
    endloop
  endfacet
  facet normal 0 0 1
    outer loop
      vertex 4.01855 2.82129 3
      vertex 0 5.68 3
      vertex 3.90137 2.47559 3
    endloop
  endfacet
  facet normal 0 0 1
    outer loop
      vertex 0 0.68 3
      vertex 3.90137 2.47559 3
      vertex 0 5.68 3
    endloop
  endfacet
  facet normal 0 0 1
    outer loop
      vertex 3.90137 2.47559 3
      vertex 0 0.68 3
      vertex 4.02539 2.12988 3
    endloop
  endfacet
  facet normal 0 0 1
    outer loop
      vertex 0 0 3
      vertex 4.02539 2.12988 3
      vertex 0 0.68 3
    endloop
  endfacet
  facet normal 0 0 1
    outer loop
      vertex 4.02539 2.12988 3
      vertex 0 0 3
      vertex 4.38379 1.97266 3
    endloop
  endfacet
  facet normal 0 0 1
    outer loop
      vertex 4.38379 1.97266 3
      vertex 0 0 3
      vertex 19.0898 0 3
    endloop
  endfacet
  facet normal -0 0 1
    outer loop
      vertex -5 5.68 3
      vertex 0 0.68 3
      vertex 0 5.68 3
    endloop
  endfacet
  facet normal 0 0 1
    outer loop
      vertex 0 0.68 3
      vertex -5 5.68 3
      vertex -5 0.68 3
    endloop
  endfacet
  facet normal -0 0 1
    outer loop
      vertex -5 54.07 3
      vertex 0 49.07 3
      vertex 0 54.07 3
    endloop
  endfacet
  facet normal 0 0 1
    outer loop
      vertex 0 49.07 3
      vertex -5 54.07 3
      vertex -5 49.07 3
    endloop
  endfacet
  facet normal 0.799232 -0.601023 0
    outer loop
      vertex 19.3809 0.0927734 3
      vertex 19.5645 0.336914 -3
      vertex 19.5645 0.336914 3
    endloop
  endfacet
  facet normal 0.799232 -0.601023 0
    outer loop
      vertex 19.5645 0.336914 -3
      vertex 19.3809 0.0927734 3
      vertex 19.3809 0.0927734 -3
    endloop
  endfacet
  facet normal 0.999584 -0.0288342 0
    outer loop
      vertex 19.5645 0.336914 3
      vertex 19.5732 0.641602 -3
      vertex 19.5732 0.641602 3
    endloop
  endfacet
  facet normal 0.999584 -0.0288342 0
    outer loop
      vertex 19.5732 0.641602 -3
      vertex 19.5645 0.336914 3
      vertex 19.5645 0.336914 -3
    endloop
  endfacet
  facet normal 0.832543 0.553961 0
    outer loop
      vertex 19.5732 0.641602 3
      vertex 19.4043 0.895508 -3
      vertex 19.4043 0.895508 3
    endloop
  endfacet
  facet normal 0.832543 0.553961 0
    outer loop
      vertex 19.4043 0.895508 -3
      vertex 19.5732 0.641602 3
      vertex 19.5732 0.641602 -3
    endloop
  endfacet
  facet normal 0.624695 0.780869 -0
    outer loop
      vertex 19.4043 0.895508 -3
      vertex 15.3857 4.11035 3
      vertex 19.4043 0.895508 3
    endloop
  endfacet
  facet normal 0.624695 0.780869 0
    outer loop
      vertex 15.3857 4.11035 3
      vertex 19.4043 0.895508 -3
      vertex 15.3857 4.11035 -3
    endloop
  endfacet
  facet normal 0.113238 0.993568 -0
    outer loop
      vertex 15.3857 4.11035 -3
      vertex 15.1201 4.14062 3
      vertex 15.3857 4.11035 3
    endloop
  endfacet
  facet normal 0.113238 0.993568 0
    outer loop
      vertex 15.1201 4.14062 3
      vertex 15.3857 4.11035 -3
      vertex 15.1201 4.14062 -3
    endloop
  endfacet
  facet normal -0.846355 0.53262 0
    outer loop
      vertex 14.9775 3.91406 -3
      vertex 15.1201 4.14062 3
      vertex 15.1201 4.14062 -3
    endloop
  endfacet
  facet normal -0.846355 0.53262 0
    outer loop
      vertex 15.1201 4.14062 3
      vertex 14.9775 3.91406 -3
      vertex 14.9775 3.91406 3
    endloop
  endfacet
  facet normal -1 0 0
    outer loop
      vertex 14.9775 1.97266 -3
      vertex 14.9775 3.91406 3
      vertex 14.9775 3.91406 -3
    endloop
  endfacet
  facet normal -1 -0 0
    outer loop
      vertex 14.9775 3.91406 3
      vertex 14.9775 1.97266 -3
      vertex 14.9775 1.97266 3
    endloop
  endfacet
  facet normal 0 1 0
    outer loop
      vertex 14.9775 1.97266 3
      vertex 5 1.97266 0.752864
      vertex 4.38379 1.97266 3
    endloop
  endfacet
  facet normal 0 1 0
    outer loop
      vertex 14.9775 1.97266 3
      vertex 5 1.97266 -0.752864
      vertex 5 1.97266 0.752864
    endloop
  endfacet
  facet normal 0 1 -0
    outer loop
      vertex 14.9775 1.97266 -3
      vertex 5 1.97266 -0.752864
      vertex 14.9775 1.97266 3
    endloop
  endfacet
  facet normal 0 1 0
    outer loop
      vertex 4.38379 1.97266 -3
      vertex 5 1.97266 -0.752864
      vertex 14.9775 1.97266 -3
    endloop
  endfacet
  facet normal 0 1 0
    outer loop
      vertex 5 1.97266 -0.752864
      vertex 4.38379 1.97266 -3
      vertex 4.38379 1.97266 -0.752864
    endloop
  endfacet
  facet normal 0 1 0
    outer loop
      vertex 4.38379 1.97266 3
      vertex 5 1.97266 0.752864
      vertex 4.38379 1.97266 0.752864
    endloop
  endfacet
  facet normal 0.401735 0.915756 -0
    outer loop
      vertex 4.38379 1.97266 -3
      vertex 4.02539 2.12988 -0.988171
      vertex 4.38379 1.97266 -0.752864
    endloop
  endfacet
  facet normal 0.401735 0.915756 0
    outer loop
      vertex 4.02539 2.12988 -0.988171
      vertex 4.38379 1.97266 -3
      vertex 4.02539 2.12988 -3
    endloop
  endfacet
  facet normal 0.401735 0.915756 0
    outer loop
      vertex 4.38379 1.97266 3
      vertex 4.02539 2.12988 0.988171
      vertex 4.02539 2.12988 3
    endloop
  endfacet
  facet normal 0.401735 0.915756 0
    outer loop
      vertex 4.02539 2.12988 0.988171
      vertex 4.38379 1.97266 3
      vertex 4.38379 1.97266 0.752864
    endloop
  endfacet
  facet normal 0.94126 0.337684 -2.50371e-008
    outer loop
      vertex 4.02539 2.12988 -3
      vertex 3.90137 2.47559 -1.23972
      vertex 4.01649 2.1547 -1.0253
    endloop
  endfacet
  facet normal 0.94126 0.337682 -0
    outer loop
      vertex 4.02539 2.12988 -3
      vertex 4.01649 2.1547 -1.0253
      vertex 4.02539 2.12988 -0.988171
    endloop
  endfacet
  facet normal 0.94126 0.337684 0
    outer loop
      vertex 3.90137 2.47559 -1.23972
      vertex 4.02539 2.12988 -3
      vertex 3.90137 2.47559 -3
    endloop
  endfacet
  facet normal 0.94126 0.337684 0
    outer loop
      vertex 4.02539 2.12988 3
      vertex 3.90137 2.47559 1.23972
      vertex 3.90137 2.47559 3
    endloop
  endfacet
  facet normal 0.94126 0.337684 2.50371e-008
    outer loop
      vertex 3.90137 2.47559 1.23972
      vertex 4.02539 2.12988 3
      vertex 4.01649 2.1547 1.0253
    endloop
  endfacet
  facet normal 0.94126 0.337682 0
    outer loop
      vertex 4.01649 2.1547 1.0253
      vertex 4.02539 2.12988 3
      vertex 4.02539 2.12988 0.988171
    endloop
  endfacet
  facet normal 0.947066 -0.321039 -1.11727e-007
    outer loop
      vertex 3.90137 2.47559 -3
      vertex 4.01855 2.82129 -1.37865
      vertex 3.95205 2.62511 -1.33963
    endloop
  endfacet
  facet normal 0.947066 -0.32104 0
    outer loop
      vertex 3.90137 2.47559 -3
      vertex 3.95205 2.62511 -1.33963
      vertex 3.90137 2.47559 -1.23972
    endloop
  endfacet
  facet normal 0.947066 -0.321039 0
    outer loop
      vertex 4.01855 2.82129 -1.37865
      vertex 3.90137 2.47559 -3
      vertex 4.01855 2.82129 -3
    endloop
  endfacet
  facet normal 0.947066 -0.321039 0
    outer loop
      vertex 3.90137 2.47559 3
      vertex 4.01855 2.82129 1.37865
      vertex 4.01855 2.82129 3
    endloop
  endfacet
  facet normal 0.947066 -0.321039 1.11727e-007
    outer loop
      vertex 4.01855 2.82129 1.37865
      vertex 3.90137 2.47559 3
      vertex 3.95205 2.62511 1.33963
    endloop
  endfacet
  facet normal 0.947066 -0.32104 0
    outer loop
      vertex 3.95205 2.62511 1.33963
      vertex 3.90137 2.47559 3
      vertex 3.90137 2.47559 1.23972
    endloop
  endfacet
  facet normal 0.395401 -0.918509 0
    outer loop
      vertex 4.01855 2.82129 -3
      vertex 4.38379 2.97852 -1.40992
      vertex 4.01855 2.82129 -1.37865
    endloop
  endfacet
  facet normal 0.395401 -0.918509 0
    outer loop
      vertex 4.38379 2.97852 -1.40992
      vertex 4.01855 2.82129 -3
      vertex 4.38379 2.97852 -3
    endloop
  endfacet
  facet normal 0.395401 -0.918509 0
    outer loop
      vertex 4.01855 2.82129 3
      vertex 4.38379 2.97852 1.40992
      vertex 4.38379 2.97852 3
    endloop
  endfacet
  facet normal 0.395401 -0.918509 0
    outer loop
      vertex 4.38379 2.97852 1.40992
      vertex 4.01855 2.82129 3
      vertex 4.01855 2.82129 1.37865
    endloop
  endfacet
  facet normal 0 -1 0
    outer loop
      vertex 4.38379 2.97852 -1.40992
      vertex 4.38379 2.97852 -3
      vertex 5 2.97852 -1.40992
    endloop
  endfacet
  facet normal 0 -1 0
    outer loop
      vertex 5 2.97852 1.40992
      vertex 4.38379 2.97852 3
      vertex 4.38379 2.97852 1.40992
    endloop
  endfacet
  facet normal 0 -1 0
    outer loop
      vertex 4.38379 2.97852 3
      vertex 5 2.97852 1.40992
      vertex 12.7148 2.97852 3
    endloop
  endfacet
  facet normal 0 -1 0
    outer loop
      vertex 5 2.97852 -1.40992
      vertex 12.7148 2.97852 3
      vertex 5 2.97852 1.40992
    endloop
  endfacet
  facet normal 0 -1 0
    outer loop
      vertex 12.7148 2.97852 -3
      vertex 5 2.97852 -1.40992
      vertex 4.38379 2.97852 -3
    endloop
  endfacet
  facet normal 0 -1 0
    outer loop
      vertex 5 2.97852 -1.40992
      vertex 12.7148 2.97852 -3
      vertex 12.7148 2.97852 3
    endloop
  endfacet
  facet normal 0.198472 -0.980107 0
    outer loop
      vertex 12.7148 2.97852 -3
      vertex 13.1055 3.05762 3
      vertex 12.7148 2.97852 3
    endloop
  endfacet
  facet normal 0.198472 -0.980107 0
    outer loop
      vertex 13.1055 3.05762 3
      vertex 12.7148 2.97852 -3
      vertex 13.1055 3.05762 -3
    endloop
  endfacet
  facet normal 0.558778 -0.829317 0
    outer loop
      vertex 13.1055 3.05762 -3
      vertex 13.4258 3.27344 3
      vertex 13.1055 3.05762 3
    endloop
  endfacet
  facet normal 0.558778 -0.829317 0
    outer loop
      vertex 13.4258 3.27344 3
      vertex 13.1055 3.05762 -3
      vertex 13.4258 3.27344 -3
    endloop
  endfacet
  facet normal 0.828525 -0.559951 0
    outer loop
      vertex 13.4258 3.27344 3
      vertex 13.6416 3.59277 -3
      vertex 13.6416 3.59277 3
    endloop
  endfacet
  facet normal 0.828525 -0.559951 0
    outer loop
      vertex 13.6416 3.59277 -3
      vertex 13.4258 3.27344 3
      vertex 13.4258 3.27344 -3
    endloop
  endfacet
  facet normal 0.980203 -0.197996 0
    outer loop
      vertex 13.6416 3.59277 3
      vertex 13.7207 3.98438 -3
      vertex 13.7207 3.98438 3
    endloop
  endfacet
  facet normal 0.980203 -0.197996 0
    outer loop
      vertex 13.7207 3.98438 -3
      vertex 13.6416 3.59277 3
      vertex 13.6416 3.59277 -3
    endloop
  endfacet
  facet normal 1 -0 0
    outer loop
      vertex 13.7207 3.98438 3
      vertex 13.7207 38.6787 -3
      vertex 13.7207 38.6787 3
    endloop
  endfacet
  facet normal 1 0 0
    outer loop
      vertex 13.7207 38.6787 -3
      vertex 13.7207 3.98438 3
      vertex 13.7207 3.98438 -3
    endloop
  endfacet
  facet normal 0 -1 0
    outer loop
      vertex 13.7207 38.6787 -3
      vertex 15.2256 38.6787 3
      vertex 13.7207 38.6787 3
    endloop
  endfacet
  facet normal 0 -1 -0
    outer loop
      vertex 15.2256 38.6787 3
      vertex 13.7207 38.6787 -3
      vertex 15.2256 38.6787 -3
    endloop
  endfacet
  facet normal -0.950155 -0.311779 0
    outer loop
      vertex 16.2734 35.4854 -3
      vertex 15.2256 38.6787 3
      vertex 15.2256 38.6787 -3
    endloop
  endfacet
  facet normal -0.950155 -0.311779 0
    outer loop
      vertex 15.2256 38.6787 3
      vertex 16.2734 35.4854 -3
      vertex 16.2734 35.4854 3
    endloop
  endfacet
  facet normal -0.747795 -0.66393 0
    outer loop
      vertex 16.6445 35.0674 -3
      vertex 16.2734 35.4854 3
      vertex 16.2734 35.4854 -3
    endloop
  endfacet
  facet normal -0.747795 -0.66393 0
    outer loop
      vertex 16.2734 35.4854 3
      vertex 16.6445 35.0674 -3
      vertex 16.6445 35.0674 3
    endloop
  endfacet
  facet normal -0.27657 -0.960994 0
    outer loop
      vertex 16.6445 35.0674 -3
      vertex 17.1807 34.9131 3
      vertex 16.6445 35.0674 3
    endloop
  endfacet
  facet normal -0.27657 -0.960994 -0
    outer loop
      vertex 17.1807 34.9131 3
      vertex 16.6445 35.0674 -3
      vertex 17.1807 34.9131 -3
    endloop
  endfacet
  facet normal 0 -1 0
    outer loop
      vertex 17.1807 34.9131 -3
      vertex 17.7402 34.9131 3
      vertex 17.1807 34.9131 3
    endloop
  endfacet
  facet normal 0 -1 -0
    outer loop
      vertex 17.7402 34.9131 3
      vertex 17.1807 34.9131 -3
      vertex 17.7402 34.9131 -3
    endloop
  endfacet
  facet normal 0.383173 -0.923676 0
    outer loop
      vertex 17.7402 34.9131 -3
      vertex 18.0957 35.0605 3
      vertex 17.7402 34.9131 3
    endloop
  endfacet
  facet normal 0.383173 -0.923676 0
    outer loop
      vertex 18.0957 35.0605 3
      vertex 17.7402 34.9131 -3
      vertex 18.0957 35.0605 -3
    endloop
  endfacet
  facet normal 0.923676 -0.383173 0
    outer loop
      vertex 18.0957 35.0605 3
      vertex 18.2432 35.416 -3
      vertex 18.2432 35.416 3
    endloop
  endfacet
  facet normal 0.923676 -0.383173 0
    outer loop
      vertex 18.2432 35.416 -3
      vertex 18.0957 35.0605 3
      vertex 18.0957 35.0605 -3
    endloop
  endfacet
  facet normal 1 -0 0
    outer loop
      vertex 18.2432 35.416 3
      vertex 18.2432 52.9883 -3
      vertex 18.2432 52.9883 3
    endloop
  endfacet
  facet normal 1 0 0
    outer loop
      vertex 18.2432 52.9883 -3
      vertex 18.2432 35.416 3
      vertex 18.2432 35.416 -3
    endloop
  endfacet
  facet normal 0.980724 0.195398 0
    outer loop
      vertex 18.2432 52.9883 3
      vertex 18.0898 53.7578 -3
      vertex 18.0898 53.7578 3
    endloop
  endfacet
  facet normal 0.980724 0.195398 0
    outer loop
      vertex 18.0898 53.7578 -3
      vertex 18.2432 52.9883 3
      vertex 18.2432 52.9883 -3
    endloop
  endfacet
  facet normal 0.831667 0.555275 0
    outer loop
      vertex 18.0898 53.7578 3
      vertex 17.6543 54.4102 -3
      vertex 17.6543 54.4102 3
    endloop
  endfacet
  facet normal 0.831667 0.555275 0
    outer loop
      vertex 17.6543 54.4102 -3
      vertex 18.0898 53.7578 3
      vertex 18.0898 53.7578 -3
    endloop
  endfacet
  facet normal 0.556135 0.831092 -0
    outer loop
      vertex 17.6543 54.4102 -3
      vertex 17.002 54.8467 3
      vertex 17.6543 54.4102 3
    endloop
  endfacet
  facet normal 0.556135 0.831092 0
    outer loop
      vertex 17.002 54.8467 3
      vertex 17.6543 54.4102 -3
      vertex 17.002 54.8467 -3
    endloop
  endfacet
  facet normal 0.19516 0.980771 -0
    outer loop
      vertex 17.002 54.8467 -3
      vertex 16.2314 55 3
      vertex 17.002 54.8467 3
    endloop
  endfacet
  facet normal 0.19516 0.980771 0
    outer loop
      vertex 16.2314 55 3
      vertex 17.002 54.8467 -3
      vertex 16.2314 55 -3
    endloop
  endfacet
  facet normal 0 1 -0
    outer loop
      vertex 16.2314 55 -3
      vertex 0 55 3
      vertex 16.2314 55 3
    endloop
  endfacet
  facet normal 0 1 0
    outer loop
      vertex 0 55 3
      vertex 16.2314 55 -3
      vertex 0 55 -3
    endloop
  endfacet
  facet normal -1 0 0
    outer loop
      vertex 0 5.68 -3
      vertex 0 49.07 3
      vertex 0 49.07 -3
    endloop
  endfacet
  facet normal -1 -0 0
    outer loop
      vertex 0 49.07 3
      vertex 0 5.68 -3
      vertex 0 5.68 3
    endloop
  endfacet
  facet normal -1 0 0
    outer loop
      vertex 0 54.07 -3
      vertex 0 55 3
      vertex 0 55 -3
    endloop
  endfacet
  facet normal -1 -0 0
    outer loop
      vertex 0 55 3
      vertex 0 54.07 -3
      vertex 0 54.07 3
    endloop
  endfacet
  facet normal -1 0 0
    outer loop
      vertex 0 0 -3
      vertex 0 0.68 3
      vertex 0 0.68 -3
    endloop
  endfacet
  facet normal -1 -0 0
    outer loop
      vertex 0 0.68 3
      vertex 0 0 -3
      vertex 0 0 3
    endloop
  endfacet
  facet normal 0 -1 0
    outer loop
      vertex 0 0 -3
      vertex 19.0898 0 3
      vertex 0 0 3
    endloop
  endfacet
  facet normal 0 -1 -0
    outer loop
      vertex 19.0898 0 3
      vertex 0 0 -3
      vertex 19.0898 0 -3
    endloop
  endfacet
  facet normal 0.303731 -0.952758 0
    outer loop
      vertex 19.0898 0 -3
      vertex 19.3809 0.0927734 3
      vertex 19.0898 0 3
    endloop
  endfacet
  facet normal 0.303731 -0.952758 0
    outer loop
      vertex 19.3809 0.0927734 3
      vertex 19.0898 0 -3
      vertex 19.3809 0.0927734 -3
    endloop
  endfacet
  facet normal -1 0 0
    outer loop
      vertex -5 5.68 -3
      vertex -5 4.63 1.33261e-016
      vertex -5 5.68 3
    endloop
  endfacet
  facet normal -1 0 0
    outer loop
      vertex -5 5.68 -3
      vertex -5 4.52966 -0.504446
      vertex -5 4.63 1.33261e-016
    endloop
  endfacet
  facet normal -1 0 0
    outer loop
      vertex -5 5.68 -3
      vertex -5 4.51963 -0.554891
      vertex -5 4.52966 -0.504446
    endloop
  endfacet
  facet normal -1 0 0
    outer loop
      vertex -5 5.68 -3
      vertex -5 4.2053 -1.0253
      vertex -5 4.51963 -0.554891
    endloop
  endfacet
  facet normal -1 0 0
    outer loop
      vertex -5 5.68 -3
      vertex -5 3.73489 -1.33963
      vertex -5 4.2053 -1.0253
    endloop
  endfacet
  facet normal -1 0 0
    outer loop
      vertex -5 5.68 -3
      vertex -5 3.18 -1.45
      vertex -5 3.73489 -1.33963
    endloop
  endfacet
  facet normal -1 0 0
    outer loop
      vertex -5 0.68 -3
      vertex -5 3.18 -1.45
      vertex -5 5.68 -3
    endloop
  endfacet
  facet normal -1 -0 0
    outer loop
      vertex -5 1.83034 -0.504446
      vertex -5 0.68 -3
      vertex -5 1.73 4.88396e-016
    endloop
  endfacet
  facet normal -1 -0 0
    outer loop
      vertex -5 1.84037 -0.554891
      vertex -5 0.68 -3
      vertex -5 1.83034 -0.504446
    endloop
  endfacet
  facet normal -1 -0 0
    outer loop
      vertex -5 2.1547 -1.0253
      vertex -5 0.68 -3
      vertex -5 1.84037 -0.554891
    endloop
  endfacet
  facet normal -1 -0 0
    outer loop
      vertex -5 2.62511 -1.33963
      vertex -5 0.68 -3
      vertex -5 2.1547 -1.0253
    endloop
  endfacet
  facet normal -1 -0 0
    outer loop
      vertex -5 3.18 -1.45
      vertex -5 0.68 -3
      vertex -5 2.62511 -1.33963
    endloop
  endfacet
  facet normal -1 0 0
    outer loop
      vertex -5 4.61997 0.0504446
      vertex -5 5.68 3
      vertex -5 4.63 1.33261e-016
    endloop
  endfacet
  facet normal -1 0 0
    outer loop
      vertex -5 4.51963 0.554891
      vertex -5 5.68 3
      vertex -5 4.61997 0.0504446
    endloop
  endfacet
  facet normal -1 0 0
    outer loop
      vertex -5 4.2053 1.0253
      vertex -5 5.68 3
      vertex -5 4.51963 0.554891
    endloop
  endfacet
  facet normal -1 0 0
    outer loop
      vertex -5 3.73489 1.33963
      vertex -5 5.68 3
      vertex -5 4.2053 1.0253
    endloop
  endfacet
  facet normal -1 0 0
    outer loop
      vertex -5 3.18 1.45
      vertex -5 5.68 3
      vertex -5 3.73489 1.33963
    endloop
  endfacet
  facet normal -1 0 0
    outer loop
      vertex -5 0.68 3
      vertex -5 3.18 1.45
      vertex -5 2.62511 1.33963
    endloop
  endfacet
  facet normal -1 0 0
    outer loop
      vertex -5 0.68 3
      vertex -5 1.74003 0.0504446
      vertex -5 1.73 4.88396e-016
    endloop
  endfacet
  facet normal -1 0 0
    outer loop
      vertex -5 0.68 3
      vertex -5 1.73 4.88396e-016
      vertex -5 0.68 -3
    endloop
  endfacet
  facet normal -1 0 0
    outer loop
      vertex -5 3.18 1.45
      vertex -5 0.68 3
      vertex -5 5.68 3
    endloop
  endfacet
  facet normal -1 0 0
    outer loop
      vertex -5 2.1547 1.0253
      vertex -5 0.68 3
      vertex -5 2.62511 1.33963
    endloop
  endfacet
  facet normal -1 0 0
    outer loop
      vertex -5 1.84037 0.554891
      vertex -5 0.68 3
      vertex -5 2.1547 1.0253
    endloop
  endfacet
  facet normal -1 0 0
    outer loop
      vertex -5 1.74003 0.0504446
      vertex -5 0.68 3
      vertex -5 1.84037 0.554891
    endloop
  endfacet
  facet normal 0 1 -0
    outer loop
      vertex 0 5.68 -3
      vertex -5 5.68 3
      vertex 0 5.68 3
    endloop
  endfacet
  facet normal 0 1 0
    outer loop
      vertex -5 5.68 3
      vertex 0 5.68 -3
      vertex -5 5.68 -3
    endloop
  endfacet
  facet normal 0 -1 0
    outer loop
      vertex -5 0.68 -3
      vertex 0 0.68 3
      vertex -5 0.68 3
    endloop
  endfacet
  facet normal 0 -1 -0
    outer loop
      vertex 0 0.68 3
      vertex -5 0.68 -3
      vertex 0 0.68 -3
    endloop
  endfacet
  facet normal -1 0 0
    outer loop
      vertex -5 54.07 -3
      vertex -5 53.02 1.33261e-016
      vertex -5 54.07 3
    endloop
  endfacet
  facet normal -1 0 0
    outer loop
      vertex -5 54.07 -3
      vertex -5 52.9197 -0.504446
      vertex -5 53.02 1.33261e-016
    endloop
  endfacet
  facet normal -1 0 0
    outer loop
      vertex -5 54.07 -3
      vertex -5 52.9096 -0.554891
      vertex -5 52.9197 -0.504446
    endloop
  endfacet
  facet normal -1 0 0
    outer loop
      vertex -5 54.07 -3
      vertex -5 52.5953 -1.0253
      vertex -5 52.9096 -0.554891
    endloop
  endfacet
  facet normal -1 0 0
    outer loop
      vertex -5 54.07 -3
      vertex -5 52.1249 -1.33963
      vertex -5 52.5953 -1.0253
    endloop
  endfacet
  facet normal -1 0 0
    outer loop
      vertex -5 54.07 -3
      vertex -5 51.57 -1.45
      vertex -5 52.1249 -1.33963
    endloop
  endfacet
  facet normal -1 0 0
    outer loop
      vertex -5 49.07 -3
      vertex -5 51.57 -1.45
      vertex -5 54.07 -3
    endloop
  endfacet
  facet normal -1 0 0
    outer loop
      vertex -5 49.07 -3
      vertex -5 50.2203 -0.504446
      vertex -5 50.2304 -0.554891
    endloop
  endfacet
  facet normal -1 -0 0
    outer loop
      vertex -5 50.2203 -0.504446
      vertex -5 49.07 -3
      vertex -5 50.12 4.88396e-016
    endloop
  endfacet
  facet normal -1 -0 0
    outer loop
      vertex -5 50.5447 -1.0253
      vertex -5 49.07 -3
      vertex -5 50.2304 -0.554891
    endloop
  endfacet
  facet normal -1 -0 0
    outer loop
      vertex -5 51.0151 -1.33963
      vertex -5 49.07 -3
      vertex -5 50.5447 -1.0253
    endloop
  endfacet
  facet normal -1 -0 0
    outer loop
      vertex -5 51.57 -1.45
      vertex -5 49.07 -3
      vertex -5 51.0151 -1.33963
    endloop
  endfacet
  facet normal -1 0 0
    outer loop
      vertex -5 53.01 0.0504446
      vertex -5 54.07 3
      vertex -5 53.02 1.33261e-016
    endloop
  endfacet
  facet normal -1 0 0
    outer loop
      vertex -5 52.9096 0.554891
      vertex -5 54.07 3
      vertex -5 53.01 0.0504446
    endloop
  endfacet
  facet normal -1 0 0
    outer loop
      vertex -5 52.5953 1.0253
      vertex -5 54.07 3
      vertex -5 52.9096 0.554891
    endloop
  endfacet
  facet normal -1 0 0
    outer loop
      vertex -5 52.1249 1.33963
      vertex -5 54.07 3
      vertex -5 52.5953 1.0253
    endloop
  endfacet
  facet normal -1 0 0
    outer loop
      vertex -5 51.57 1.45
      vertex -5 54.07 3
      vertex -5 52.1249 1.33963
    endloop
  endfacet
  facet normal -1 0 0
    outer loop
      vertex -5 49.07 3
      vertex -5 51.57 1.45
      vertex -5 51.0151 1.33963
    endloop
  endfacet
  facet normal -1 0 0
    outer loop
      vertex -5 49.07 3
      vertex -5 50.13 0.0504446
      vertex -5 50.12 4.88396e-016
    endloop
  endfacet
  facet normal -1 0 0
    outer loop
      vertex -5 49.07 3
      vertex -5 50.12 4.88396e-016
      vertex -5 49.07 -3
    endloop
  endfacet
  facet normal -1 0 0
    outer loop
      vertex -5 51.57 1.45
      vertex -5 49.07 3
      vertex -5 54.07 3
    endloop
  endfacet
  facet normal -1 0 0
    outer loop
      vertex -5 50.5447 1.0253
      vertex -5 49.07 3
      vertex -5 51.0151 1.33963
    endloop
  endfacet
  facet normal -1 0 0
    outer loop
      vertex -5 50.2304 0.554891
      vertex -5 49.07 3
      vertex -5 50.5447 1.0253
    endloop
  endfacet
  facet normal -1 0 0
    outer loop
      vertex -5 50.13 0.0504446
      vertex -5 49.07 3
      vertex -5 50.2304 0.554891
    endloop
  endfacet
  facet normal 0 -1 0
    outer loop
      vertex -5 49.07 -3
      vertex 0 49.07 3
      vertex -5 49.07 3
    endloop
  endfacet
  facet normal 0 -1 -0
    outer loop
      vertex 0 49.07 3
      vertex -5 49.07 -3
      vertex 0 49.07 -3
    endloop
  endfacet
  facet normal 0 1 -0
    outer loop
      vertex 0 54.07 -3
      vertex -5 54.07 3
      vertex 0 54.07 3
    endloop
  endfacet
  facet normal 0 1 0
    outer loop
      vertex -5 54.07 3
      vertex 0 54.07 -3
      vertex -5 54.07 -3
    endloop
  endfacet
  facet normal 0 -0.195091 0.980785
    outer loop
      vertex -5 52.1249 -1.33963
      vertex 5 51.57 -1.45
      vertex 5 52.1249 -1.33963
    endloop
  endfacet
  facet normal 0 -0.195091 0.980785
    outer loop
      vertex 5 51.57 -1.45
      vertex -5 52.1249 -1.33963
      vertex -5 51.57 -1.45
    endloop
  endfacet
  facet normal 0 0.195091 -0.980785
    outer loop
      vertex -5 51.0151 1.33963
      vertex 5 51.57 1.45
      vertex 5 51.0151 1.33963
    endloop
  endfacet
  facet normal 0 0.195091 -0.980785
    outer loop
      vertex 5 51.57 1.45
      vertex -5 51.0151 1.33963
      vertex -5 51.57 1.45
    endloop
  endfacet
  facet normal 0 -0.980785 -0.195093
    outer loop
      vertex -5 53.01 0.0504446
      vertex 5 52.9096 0.554891
      vertex -5 52.9096 0.554891
    endloop
  endfacet
  facet normal -4.33192e-017 0.980785 0.195093
    outer loop
      vertex 5 50.12 2.70884e-015
      vertex -5 50.2203 -0.504446
      vertex -5 50.12 4.88396e-016
    endloop
  endfacet
  facet normal 0 -0.555568 0.831471
    outer loop
      vertex -5 52.5953 -1.0253
      vertex 5 52.1249 -1.33963
      vertex 5 52.5953 -1.0253
    endloop
  endfacet
  facet normal 0 -0.555568 0.831471
    outer loop
      vertex 5 52.1249 -1.33963
      vertex -5 52.5953 -1.0253
      vertex -5 52.1249 -1.33963
    endloop
  endfacet
  facet normal -4.33192e-017 -0.980785 0.195093
    outer loop
      vertex 5 53.02 2.35371e-015
      vertex -5 53.02 1.33261e-016
      vertex -5 52.9197 -0.504446
    endloop
  endfacet
  facet normal -1.35998e-007 -0.980785 -0.19509
    outer loop
      vertex -5 53.01 0.0504446
      vertex 5 53.02 2.35371e-015
      vertex 5 52.9096 0.554891
    endloop
  endfacet
  facet normal 4.33129e-017 -0.980791 -0.195064
    outer loop
      vertex 5 53.02 2.35371e-015
      vertex -5 53.01 0.0504446
      vertex -5 53.02 1.33261e-016
    endloop
  endfacet
  facet normal 0 -0.555568 -0.831471
    outer loop
      vertex -5 52.1249 1.33963
      vertex 5 52.5953 1.0253
      vertex 5 52.1249 1.33963
    endloop
  endfacet
  facet normal -0 -0.555568 -0.831471
    outer loop
      vertex 5 52.5953 1.0253
      vertex -5 52.1249 1.33963
      vertex -5 52.5953 1.0253
    endloop
  endfacet
  facet normal 0 -0.195091 -0.980785
    outer loop
      vertex -5 51.57 1.45
      vertex 5 52.1249 1.33963
      vertex 5 51.57 1.45
    endloop
  endfacet
  facet normal -0 -0.195091 -0.980785
    outer loop
      vertex 5 52.1249 1.33963
      vertex -5 51.57 1.45
      vertex -5 52.1249 1.33963
    endloop
  endfacet
  facet normal 0 -0.83147 -0.555569
    outer loop
      vertex -5 52.9096 0.554891
      vertex 5 52.5953 1.0253
      vertex -5 52.5953 1.0253
    endloop
  endfacet
  facet normal 0 -0.83147 -0.555569
    outer loop
      vertex 5 52.5953 1.0253
      vertex -5 52.9096 0.554891
      vertex 5 52.9096 0.554891
    endloop
  endfacet
  facet normal -0 0.195091 0.980785
    outer loop
      vertex -5 51.57 -1.45
      vertex 5 51.0151 -1.33963
      vertex 5 51.57 -1.45
    endloop
  endfacet
  facet normal 0 0.195091 0.980785
    outer loop
      vertex 5 51.0151 -1.33963
      vertex -5 51.57 -1.45
      vertex -5 51.0151 -1.33963
    endloop
  endfacet
  facet normal 0 -0.83147 0.555569
    outer loop
      vertex -5 52.5953 -1.0253
      vertex 5 52.9096 -0.554891
      vertex -5 52.9096 -0.554891
    endloop
  endfacet
  facet normal 0 -0.83147 0.555569
    outer loop
      vertex 5 52.9096 -0.554891
      vertex -5 52.5953 -1.0253
      vertex 5 52.5953 -1.0253
    endloop
  endfacet
  facet normal 0 -0.980791 0.195064
    outer loop
      vertex 5 52.9096 -0.554891
      vertex -5 52.9197 -0.504446
      vertex -5 52.9096 -0.554891
    endloop
  endfacet
  facet normal 1.36579e-007 -0.980785 0.19509
    outer loop
      vertex -5 52.9197 -0.504446
      vertex 5 52.9096 -0.554891
      vertex 5 53.02 2.35371e-015
    endloop
  endfacet
  facet normal 0 0.831467 0.555574
    outer loop
      vertex 5 50.5447 -1.0253
      vertex -5 50.2304 -0.554891
      vertex 5 50.2304 -0.554891
    endloop
  endfacet
  facet normal 0 0.831467 0.555574
    outer loop
      vertex -5 50.2304 -0.554891
      vertex 5 50.5447 -1.0253
      vertex -5 50.5447 -1.0253
    endloop
  endfacet
  facet normal -1 0 0
    outer loop
      vertex 5 52.9096 -0.554891
      vertex 5 52.9096 0.554891
      vertex 5 53.02 2.35371e-015
    endloop
  endfacet
  facet normal -1 0 0
    outer loop
      vertex 5 52.5953 -1.0253
      vertex 5 52.9096 0.554891
      vertex 5 52.9096 -0.554891
    endloop
  endfacet
  facet normal -1 0 0
    outer loop
      vertex 5 52.5953 -1.0253
      vertex 5 52.5953 1.0253
      vertex 5 52.9096 0.554891
    endloop
  endfacet
  facet normal -1 0 0
    outer loop
      vertex 5 52.1249 -1.33963
      vertex 5 52.5953 1.0253
      vertex 5 52.5953 -1.0253
    endloop
  endfacet
  facet normal -1 0 0
    outer loop
      vertex 5 52.1249 -1.33963
      vertex 5 52.1249 1.33963
      vertex 5 52.5953 1.0253
    endloop
  endfacet
  facet normal -1 0 0
    outer loop
      vertex 5 51.57 -1.45
      vertex 5 52.1249 1.33963
      vertex 5 52.1249 -1.33963
    endloop
  endfacet
  facet normal -1 0 0
    outer loop
      vertex 5 51.57 -1.45
      vertex 5 51.57 1.45
      vertex 5 52.1249 1.33963
    endloop
  endfacet
  facet normal -1 0 0
    outer loop
      vertex 5 51.0151 -1.33963
      vertex 5 51.57 1.45
      vertex 5 51.57 -1.45
    endloop
  endfacet
  facet normal -1 0 0
    outer loop
      vertex 5 51.0151 -1.33963
      vertex 5 51.0151 1.33963
      vertex 5 51.57 1.45
    endloop
  endfacet
  facet normal -1 0 0
    outer loop
      vertex 5 50.5447 -1.0253
      vertex 5 51.0151 1.33963
      vertex 5 51.0151 -1.33963
    endloop
  endfacet
  facet normal -1 0 0
    outer loop
      vertex 5 50.5447 -1.0253
      vertex 5 50.5447 1.0253
      vertex 5 51.0151 1.33963
    endloop
  endfacet
  facet normal -1 0 0
    outer loop
      vertex 5 50.2304 -0.554891
      vertex 5 50.5447 1.0253
      vertex 5 50.5447 -1.0253
    endloop
  endfacet
  facet normal -1 0 0
    outer loop
      vertex 5 50.2304 -0.554891
      vertex 5 50.2304 0.554891
      vertex 5 50.5447 1.0253
    endloop
  endfacet
  facet normal -1 0 -0
    outer loop
      vertex 5 50.2304 0.554891
      vertex 5 50.2304 -0.554891
      vertex 5 50.12 2.70884e-015
    endloop
  endfacet
  facet normal -0 0.555571 0.831469
    outer loop
      vertex -5 51.0151 -1.33963
      vertex 5 50.5447 -1.0253
      vertex 5 51.0151 -1.33963
    endloop
  endfacet
  facet normal 0 0.555571 0.831469
    outer loop
      vertex 5 50.5447 -1.0253
      vertex -5 51.0151 -1.33963
      vertex -5 50.5447 -1.0253
    endloop
  endfacet
  facet normal 1.36579e-007 0.980785 0.19509
    outer loop
      vertex 5 50.2304 -0.554891
      vertex -5 50.2203 -0.504446
      vertex 5 50.12 2.70884e-015
    endloop
  endfacet
  facet normal 0 0.980791 0.195064
    outer loop
      vertex -5 50.2203 -0.504446
      vertex 5 50.2304 -0.554891
      vertex -5 50.2304 -0.554891
    endloop
  endfacet
  facet normal 0 0.980786 -0.195085
    outer loop
      vertex -5 50.2304 0.554891
      vertex 5 50.2304 0.554891
      vertex -5 50.13 0.0504446
    endloop
  endfacet
  facet normal 2.38142e-007 0.980785 -0.19509
    outer loop
      vertex 5 50.12 2.70884e-015
      vertex -5 50.13 0.0504446
      vertex 5 50.2304 0.554891
    endloop
  endfacet
  facet normal 4.34243e-017 0.980776 -0.195135
    outer loop
      vertex -5 50.13 0.0504446
      vertex 5 50.12 2.70884e-015
      vertex -5 50.12 4.88396e-016
    endloop
  endfacet
  facet normal 0 0.831467 -0.555574
    outer loop
      vertex 5 50.2304 0.554891
      vertex -5 50.5447 1.0253
      vertex 5 50.5447 1.0253
    endloop
  endfacet
  facet normal 0 0.831467 -0.555574
    outer loop
      vertex -5 50.5447 1.0253
      vertex 5 50.2304 0.554891
      vertex -5 50.2304 0.554891
    endloop
  endfacet
  facet normal 0 0.555571 -0.831469
    outer loop
      vertex -5 50.5447 1.0253
      vertex 5 51.0151 1.33963
      vertex 5 50.5447 1.0253
    endloop
  endfacet
  facet normal 0 0.555571 -0.831469
    outer loop
      vertex 5 51.0151 1.33963
      vertex -5 50.5447 1.0253
      vertex -5 51.0151 1.33963
    endloop
  endfacet
  facet normal 0 -0.19509 0.980785
    outer loop
      vertex -5 3.73489 -1.33963
      vertex 5 3.18 -1.45
      vertex 5 3.73489 -1.33963
    endloop
  endfacet
  facet normal 0 -0.19509 0.980785
    outer loop
      vertex 5 3.18 -1.45
      vertex -5 3.73489 -1.33963
      vertex -5 3.18 -1.45
    endloop
  endfacet
  facet normal -1 0 0
    outer loop
      vertex 5 4.51963 -0.554891
      vertex 5 4.51963 0.554891
      vertex 5 4.63 2.35371e-015
    endloop
  endfacet
  facet normal -1 0 0
    outer loop
      vertex 5 2.97852 -1.40992
      vertex 5 4.51963 -0.554891
      vertex 5 4.2053 -1.0253
    endloop
  endfacet
  facet normal -1 -0 0
    outer loop
      vertex 5 4.51963 -0.554891
      vertex 5 2.97852 -1.40992
      vertex 5 4.51963 0.554891
    endloop
  endfacet
  facet normal -1 0 0
    outer loop
      vertex 5 2.97852 -1.40992
      vertex 5 4.2053 -1.0253
      vertex 5 3.73489 -1.33963
    endloop
  endfacet
  facet normal -1 0 0
    outer loop
      vertex 5 2.97852 1.40992
      vertex 5 4.51963 0.554891
      vertex 5 2.97852 -1.40992
    endloop
  endfacet
  facet normal -1 0 0
    outer loop
      vertex 5 2.97852 -1.40992
      vertex 5 3.73489 -1.33963
      vertex 5 3.18 -1.45
    endloop
  endfacet
  facet normal -1 0 0
    outer loop
      vertex 5 4.51963 0.554891
      vertex 5 2.97852 1.40992
      vertex 5 4.2053 1.0253
    endloop
  endfacet
  facet normal -1 0 0
    outer loop
      vertex 5 4.2053 1.0253
      vertex 5 2.97852 1.40992
      vertex 5 3.73489 1.33963
    endloop
  endfacet
  facet normal -1 0 0
    outer loop
      vertex 5 3.73489 1.33963
      vertex 5 2.97852 1.40992
      vertex 5 3.18 1.45
    endloop
  endfacet
  facet normal -1 0 0
    outer loop
      vertex 5 1.73 2.70884e-015
      vertex 5 1.97266 -0.752864
      vertex 5 1.84037 -0.554891
    endloop
  endfacet
  facet normal -1 0 0
    outer loop
      vertex 5 1.97266 -0.752864
      vertex 5 1.73 2.70884e-015
      vertex 5 1.97266 0.752864
    endloop
  endfacet
  facet normal -1 0 0
    outer loop
      vertex 5 1.97266 0.752864
      vertex 5 1.73 2.70884e-015
      vertex 5 1.84037 0.554891
    endloop
  endfacet
  facet normal 0 -0.83147 -0.55557
    outer loop
      vertex -5 4.51963 0.554891
      vertex 5 4.2053 1.0253
      vertex -5 4.2053 1.0253
    endloop
  endfacet
  facet normal 0 -0.83147 -0.55557
    outer loop
      vertex 5 4.2053 1.0253
      vertex -5 4.51963 0.554891
      vertex 5 4.51963 0.554891
    endloop
  endfacet
  facet normal -1.59724e-009 0.980785 0.19509
    outer loop
      vertex 5 1.84037 -0.554891
      vertex -5 1.83034 -0.504446
      vertex 5 1.73 2.70884e-015
    endloop
  endfacet
  facet normal 0 0.980785 0.195091
    outer loop
      vertex -5 1.83034 -0.504446
      vertex 5 1.84037 -0.554891
      vertex -5 1.84037 -0.554891
    endloop
  endfacet
  facet normal 0 -0.980785 0.195091
    outer loop
      vertex 5 4.51963 -0.554891
      vertex -5 4.52966 -0.504446
      vertex -5 4.51963 -0.554891
    endloop
  endfacet
  facet normal 5.2856e-010 -0.980785 0.195091
    outer loop
      vertex -5 4.52966 -0.504446
      vertex 5 4.51963 -0.554891
      vertex 5 4.63 2.35371e-015
    endloop
  endfacet
  facet normal 5.2856e-011 -0.980785 -0.195091
    outer loop
      vertex -5 4.61997 0.0504446
      vertex 5 4.63 2.35371e-015
      vertex 5 4.51963 0.554891
    endloop
  endfacet
  facet normal 4.33189e-017 -0.980785 -0.195091
    outer loop
      vertex 5 4.63 2.35371e-015
      vertex -5 4.61997 0.0504446
      vertex -5 4.63 1.33261e-016
    endloop
  endfacet
  facet normal -4.33189e-017 -0.980785 0.195091
    outer loop
      vertex 5 4.63 2.35371e-015
      vertex -5 4.63 1.33261e-016
      vertex -5 4.52966 -0.504446
    endloop
  endfacet
  facet normal 0 0.195091 0.980785
    outer loop
      vertex 5 3.18 -1.45
      vertex 4.38379 2.97852 -1.40992
      vertex 5 2.97852 -1.40992
    endloop
  endfacet
  facet normal -0 0.195091 0.980785
    outer loop
      vertex -5 3.18 -1.45
      vertex 4.38379 2.97852 -1.40992
      vertex 5 3.18 -1.45
    endloop
  endfacet
  facet normal -4.40108e-009 0.19509 0.980785
    outer loop
      vertex -5 3.18 -1.45
      vertex 4.01855 2.82129 -1.37865
      vertex 4.38379 2.97852 -1.40992
    endloop
  endfacet
  facet normal -2.3955e-008 0.19509 0.980785
    outer loop
      vertex -5 3.18 -1.45
      vertex 3.95205 2.62511 -1.33963
      vertex 4.01855 2.82129 -1.37865
    endloop
  endfacet
  facet normal 0 0.19509 0.980785
    outer loop
      vertex 3.95205 2.62511 -1.33963
      vertex -5 3.18 -1.45
      vertex -5 2.62511 -1.33963
    endloop
  endfacet
  facet normal 0 0.195091 -0.980785
    outer loop
      vertex 4.38379 2.97852 1.40992
      vertex 5 3.18 1.45
      vertex 5 2.97852 1.40992
    endloop
  endfacet
  facet normal 0 0.19509 -0.980785
    outer loop
      vertex -5 3.18 1.45
      vertex 3.95205 2.62511 1.33963
      vertex -5 2.62511 1.33963
    endloop
  endfacet
  facet normal -2.3955e-008 0.19509 -0.980785
    outer loop
      vertex 3.95205 2.62511 1.33963
      vertex -5 3.18 1.45
      vertex 4.01855 2.82129 1.37865
    endloop
  endfacet
  facet normal -4.40108e-009 0.19509 -0.980785
    outer loop
      vertex 4.01855 2.82129 1.37865
      vertex -5 3.18 1.45
      vertex 4.38379 2.97852 1.40992
    endloop
  endfacet
  facet normal 0 0.195091 -0.980785
    outer loop
      vertex 4.38379 2.97852 1.40992
      vertex -5 3.18 1.45
      vertex 5 3.18 1.45
    endloop
  endfacet
  facet normal 0 -0.55557 -0.831469
    outer loop
      vertex -5 3.73489 1.33963
      vertex 5 4.2053 1.0253
      vertex 5 3.73489 1.33963
    endloop
  endfacet
  facet normal -0 -0.55557 -0.831469
    outer loop
      vertex 5 4.2053 1.0253
      vertex -5 3.73489 1.33963
      vertex -5 4.2053 1.0253
    endloop
  endfacet
  facet normal 0 0.83147 -0.55557
    outer loop
      vertex 5 1.97266 0.752864
      vertex 5 1.84037 0.554891
      vertex 4.38379 1.97266 0.752864
    endloop
  endfacet
  facet normal 1.29416e-007 0.831468 -0.555572
    outer loop
      vertex -5 1.84037 0.554891
      vertex 4.01649 2.1547 1.0253
      vertex 4.02539 2.12988 0.988171
    endloop
  endfacet
  facet normal 4.75056e-009 0.83147 -0.55557
    outer loop
      vertex -5 1.84037 0.554891
      vertex 4.02539 2.12988 0.988171
      vertex 4.38379 1.97266 0.752864
    endloop
  endfacet
  facet normal 0 0.83147 -0.55557
    outer loop
      vertex -5 1.84037 0.554891
      vertex 4.38379 1.97266 0.752864
      vertex 5 1.84037 0.554891
    endloop
  endfacet
  facet normal 0 0.83147 -0.55557
    outer loop
      vertex 4.01649 2.1547 1.0253
      vertex -5 1.84037 0.554891
      vertex -5 2.1547 1.0253
    endloop
  endfacet
  facet normal 0 0.555571 -0.831469
    outer loop
      vertex 4.01649 2.1547 1.0253
      vertex -5 2.1547 1.0253
      vertex 3.90137 2.47559 1.23972
    endloop
  endfacet
  facet normal 3.2057e-009 0.55557 -0.831469
    outer loop
      vertex -5 2.62511 1.33963
      vertex 3.90137 2.47559 1.23972
      vertex -5 2.1547 1.0253
    endloop
  endfacet
  facet normal 0 0.55557 -0.83147
    outer loop
      vertex 3.90137 2.47559 1.23972
      vertex -5 2.62511 1.33963
      vertex 3.95205 2.62511 1.33963
    endloop
  endfacet
  facet normal -4.33187e-017 0.980785 0.19509
    outer loop
      vertex 5 1.73 2.70884e-015
      vertex -5 1.83034 -0.504446
      vertex -5 1.73 4.88396e-016
    endloop
  endfacet
  facet normal 0 -0.980785 -0.195091
    outer loop
      vertex -5 4.61997 0.0504446
      vertex 5 4.51963 0.554891
      vertex -5 4.51963 0.554891
    endloop
  endfacet
  facet normal 0 -0.83147 0.55557
    outer loop
      vertex -5 4.2053 -1.0253
      vertex 5 4.51963 -0.554891
      vertex -5 4.51963 -0.554891
    endloop
  endfacet
  facet normal 0 -0.83147 0.55557
    outer loop
      vertex 5 4.51963 -0.554891
      vertex -5 4.2053 -1.0253
      vertex 5 4.2053 -1.0253
    endloop
  endfacet
  facet normal 0 -0.55557 0.831469
    outer loop
      vertex -5 4.2053 -1.0253
      vertex 5 3.73489 -1.33963
      vertex 5 4.2053 -1.0253
    endloop
  endfacet
  facet normal 0 -0.55557 0.831469
    outer loop
      vertex 5 3.73489 -1.33963
      vertex -5 4.2053 -1.0253
      vertex -5 3.73489 -1.33963
    endloop
  endfacet
  facet normal 0 -0.19509 -0.980785
    outer loop
      vertex -5 3.18 1.45
      vertex 5 3.73489 1.33963
      vertex 5 3.18 1.45
    endloop
  endfacet
  facet normal -0 -0.19509 -0.980785
    outer loop
      vertex 5 3.73489 1.33963
      vertex -5 3.18 1.45
      vertex -5 3.73489 1.33963
    endloop
  endfacet
  facet normal 2.17865e-009 0.980785 -0.19509
    outer loop
      vertex 5 1.73 2.70884e-015
      vertex -5 1.74003 0.0504446
      vertex 5 1.84037 0.554891
    endloop
  endfacet
  facet normal 4.32139e-017 0.980785 -0.195091
    outer loop
      vertex -5 1.74003 0.0504446
      vertex 5 1.73 2.70884e-015
      vertex -5 1.73 4.88396e-016
    endloop
  endfacet
  facet normal 0 0.980785 -0.19509
    outer loop
      vertex -5 1.84037 0.554891
      vertex 5 1.84037 0.554891
      vertex -5 1.74003 0.0504446
    endloop
  endfacet
  facet normal 0 0.55557 0.83147
    outer loop
      vertex 3.95205 2.62511 -1.33963
      vertex -5 2.62511 -1.33963
      vertex 3.90137 2.47559 -1.23972
    endloop
  endfacet
  facet normal 3.2057e-009 0.55557 0.831469
    outer loop
      vertex -5 2.1547 -1.0253
      vertex 3.90137 2.47559 -1.23972
      vertex -5 2.62511 -1.33963
    endloop
  endfacet
  facet normal 0 0.555571 0.831469
    outer loop
      vertex 3.90137 2.47559 -1.23972
      vertex -5 2.1547 -1.0253
      vertex 4.01649 2.1547 -1.0253
    endloop
  endfacet
  facet normal -0 0.83147 0.55557
    outer loop
      vertex 4.38379 1.97266 -0.752864
      vertex 5 1.84037 -0.554891
      vertex 5 1.97266 -0.752864
    endloop
  endfacet
  facet normal 0 0.83147 0.55557
    outer loop
      vertex 5 1.84037 -0.554891
      vertex 4.38379 1.97266 -0.752864
      vertex -5 1.84037 -0.554891
    endloop
  endfacet
  facet normal 4.75056e-009 0.83147 0.55557
    outer loop
      vertex 4.02539 2.12988 -0.988171
      vertex -5 1.84037 -0.554891
      vertex 4.38379 1.97266 -0.752864
    endloop
  endfacet
  facet normal 1.29416e-007 0.831468 0.555572
    outer loop
      vertex 4.01649 2.1547 -1.0253
      vertex -5 1.84037 -0.554891
      vertex 4.02539 2.12988 -0.988171
    endloop
  endfacet
  facet normal 0 0.83147 0.55557
    outer loop
      vertex -5 1.84037 -0.554891
      vertex 4.01649 2.1547 -1.0253
      vertex -5 2.1547 -1.0253
    endloop
  endfacet
endsolid OpenSCAD_Model
